<svg width="371" height="260" viewBox="0 0 371 260" fill="none" xmlns="http://www.w3.org/2000/svg">
<path d="M14.5 189.5C14.5 180.5 2.5 180.5 7 174L16.4039 163.563C16.5155 161.887 17.7781 158.098 21.9351 156.355C22.4375 148.811 23.1631 137.915 30.7614 124.951C40.5 121.5 53.8371 107.125 59.6475 95.7261C59.7405 94.3292 63.536 87.9031 77.9734 73.3742C127.253 28.6697 180.39 1.9012 196.93 6.3704C213.469 10.8396 238.67 11.6755 248.057 9.77531C253.756 12.6807 316.729 15.1905 323.49 14.7989C330.251 14.4073 359.362 7.0855 359.476 30.6653C359.589 54.2452 362.049 67.8788 363.111 77.2101C364.173 86.5414 360.933 97.2699 356.073 119.677C357.975 141.692 352.223 190.137 351.106 194.272C349.988 198.407 358.93 215.84 365.468 231.429C356.083 258.585 328.982 235.734 322.22 223.497C316.81 213.708 299.737 194.499 291.876 186.118C290.162 182.356 288.232 170.048 294.22 150.916C299.358 111.69 290.977 111.132 297.793 97.2743C304.609 83.4167 295.557 92.9161 292.763 84.3111C242.251 84.3146 283.487 71.9072 208 105.606C132.513 139.305 150.338 137.124 152.573 141.482C154.809 145.841 176.322 164.111 183.027 164.557L200.629 165.729C207.334 166.176 234.044 182.267 236.112 189.139C233.033 265.712 212.593 259.973 202.758 247.532L200.576 217.08C199.626 214.491 197 210.107 194.094 213.281C190.463 217.248 183.925 214.287 176.772 207.918C163.418 206.187 105.807 173.726 100.219 169.145C94.6309 164.563 89.2113 170.096 87.3675 172.498C85.5238 174.901 83.8484 187.418 70.3281 213.457C59.5118 234.288 37.3614 227.041 27.2475 223L27.2475 215.639C27.6013 214.54 26.409 210.532 18.8093 203.291C4.44912 204.018 14.5 194.54 14.5 189.5Z" fill="white" fill-opacity="0.25" stroke="white" stroke-width="10"/>
</svg>
